<?xml version="1.0" standalone="no"?><!DOCTYPE svg PUBLIC "-//W3C//DTD SVG 1.1//EN" "http://www.w3.org/Graphics/SVG/1.1/DTD/svg11.dtd"><svg width="211.1328125" height="200" viewBox="0 0 211.1328125 200" version="1.1" xmlns="http://www.w3.org/2000/svg" xmlns:xlink="http://www.w3.org/1999/xlink"><defs><style type="text/css"><![CDATA[
@font-face { font-family: ifont; src: url("//at.alicdn.com/t/font_1442373896_4754455.eot?#iefix") format("embedded-opentype"), url("//at.alicdn.com/t/font_1442373896_4754455.woff") format("woff"), url("//at.alicdn.com/t/font_1442373896_4754455.ttf") format("truetype"), url("//at.alicdn.com/t/font_1442373896_4754455.svg#ifont") format("svg"); }

]]></style></defs><g class="transform-group"><g transform="scale(0.1953125, 0.1953125)"><path d="M841.181191 426.040093c3.885728 1.421608 7.139631 2.337755 9.193064 2.495712 0.916147 0.063183 1.800703 0.695008 2.432529 1.516382 0.631826 0.884556 0.916147 1.990251 0.821373 2.969581l-4.42278 37.972727-1.168878 2.21139c-7.771457 3.854137-60.497314-8.466465-85.106926-16.774973l-2.116616-0.789782c-60.181401-21.766397-118.056638-64.856912-163.295361-117.677543-4.580737-5.370519-8.971925-11.025359-13.363114-16.680199 12.920836-42.458689 49.787868-46.944652 77.746157-43.532793 31.43333 47.544887 65.425555 85.67557 112.180659 114.707962C777.682705 394.733128 819.446386 418.268636 841.181191 426.040093zM810.600826 96.037512m-96.00592 0a3.039 3.039 0 1 0 192.011841 0 3.039 3.039 0 1 0-192.011841 0ZM189.484538 843.487355c-4.106867 0-7.897822-2.21139-9.982847-5.749614l0 0c-2.053434-3.538224-2.085025-7.897822-0.031591-11.467637l0 0 186.578139-326.306401c3.159129-5.528475 10.172394-7.455544 15.700869-4.264824l0 0c5.496884 3.159129 7.423952 10.172394 4.264824 15.669278l0 0-176.753249 309.089149 331.834876 0 168.476332-299.832902-302.297023 0c-6.349849 0-11.53082-5.117788-11.53082-11.499228l0 0c0-6.349849 5.14938-11.499228 11.53082-11.499228l0 0 321.978394 0c4.075276 0 7.86623 2.179799 9.919664 5.718023l0 0c2.053434 3.475042 2.085025 7.86623 0.094774 11.436046l0 0-181.397168 322.86295c-2.021842 3.601407-5.907571 5.875979-10.014438 5.875979l0 0L189.484538 843.518947 189.484538 843.487355zM0 822.384376c0.031591-111.327694 90.256306-201.552409 201.584001-201.552409l0 0c111.327694 0.031591 201.552409 90.256306 201.584001 201.552409l0 0-0.031591 0c0 111.359286-90.224715 201.584001-201.552409 201.584001l0 0C90.256306 1023.999968 0.031591 933.743662 0 822.384376L0 822.384376zM22.998457 822.384376c0.189548 98.627997 79.957547 178.395996 178.585544 178.585544l0 0c98.627997-0.189548 178.395996-79.957547 178.585544-178.585544l0 0-0.031591 0c-0.157956-98.596406-79.925955-178.364405-178.553953-178.553953l0 0C102.987595 644.019971 23.188004 723.819561 22.998457 822.384376L22.998457 822.384376zM677.032866 822.415967c0-111.327694 90.224715-201.552409 201.552409-201.584001l0 0c111.359286 0.031591 201.584001 90.256306 201.584001 201.584001l0 0c0 111.327694-90.224715 201.552409-201.584001 201.584001l0 0C767.289172 1023.968376 677.032866 933.743662 677.032866 822.415967L677.032866 822.415967zM700.062914 822.415967c0.189548 98.627997 79.957547 178.395996 178.553953 178.553953l0 0c98.627997-0.157956 178.395996-79.957547 178.585544-178.553953l0 0c-0.189548-98.627997-79.925955-178.395996-178.585544-178.553953l0 0C780.02046 644.019971 700.22087 723.78797 700.062914 822.415967L700.062914 822.415967zM876.658206 835.526351c-0.126365-0.284322-89.403341-188.757938-140.612817-292.377359l0 0c-16.016782-32.507434-28.96921-57.654098-32.475843-63.150982l0 0c-1.421608-1.23206-3.095946-3.538224-3.632998-8.466465l0 0c0.031591-4.896649 2.874807-7.834639 4.201641-8.908743l0 0c1.48479-1.200469 2.369347-1.516382 3.032764-1.800703l0 0c1.263651-0.473869 1.769112-0.537052 2.179799-0.631826l0 0c0.789782-0.126365 1.074104-0.126365 1.358425-0.189548l0 0c0.537052-0.031591 0.884556-0.031591 1.326834-0.063183l0 0c0.789782-0.031591 1.769112-0.031591 3.032764-0.031591l0 0c20.218423 0 115.529336 2.148207 139.44394 2.685259l0 0 45.301905-52.978588c4.106867-4.833467 11.372863-5.40211 16.20633-1.263651l0 0c4.833467 4.106867 5.40211 11.404455 1.263651 16.20633l0 0-48.871721 57.117046c-2.242981 2.622077-5.560066 4.106867-9.003517 4.043685l0 0c-0.126365 0-87.539455-2.021842-127.881529-2.653668l0 0c5.244154 10.014438 12.225828 23.788239 20.313197 40.152525l0 0c16.774973 33.834268 38.54137 78.693895 60.118219 123.49034l0 0c43.122106 89.592889 85.454431 178.964639 85.454431 178.964639l0 0 0.031591 0.031591c2.685259 5.749614 0.25273 12.604923-5.496884 15.321774l0 0c-1.579564 0.758191-3.253903 1.105695-4.896649 1.105695l0 0C882.786916 842.12893 878.648457 839.696401 876.658206 835.526351L876.658206 835.526351zM375.272895 511.304976l-87.191951-2.274573c-6.349849-0.157956-11.372863-5.433701-11.183315-11.78355l0 0c0.157956-6.349849 5.433701-11.372863 11.78355-11.214907l0 0 87.191951 2.274573c6.349849 0.157956 11.372863 5.433701 11.183315 11.815141l0 0c-0.157956 6.255075-5.275745 11.214907-11.499228 11.214907l0 0C375.462443 511.304976 375.367669 511.304976 375.272895 511.304976L375.272895 511.304976zM478.576402 412.613796c-1.863886-1.326834-6.002344-4.517554-6.002344-4.517554-0.410687-0.284322-6.507805-38.035909 0-9.035108l-15.47973-22.556179c0.284322-0.094774 0.568643-0.25273 0.7266-0.505461 0.473869-0.663417 0.284322-1.642747-0.410687-2.085025-4.233232-2.590486-11.499228-3.44345-16.20633-4.549145-11.372863-2.653668-22.682544-5.14938-33.992225-7.992596-12.541741-3.159129-25.367803-4.801876-37.81477-8.371691-8.687604-2.495712 14.216079-37.56204 6.065527-41.131855-2.242981-0.97933-24.388473 13.141975-26.062812 14.437218-4.328006 3.253903-15.069044 18.859998-17.564755 23.598691-6.539396 12.352193-14.089714 30.264453-15.700869 44.101436-3.411859 29.443079 3.822546 59.328436 23.31437 81.000059 25.336212 28.211019 59.42321 45.90214 89.877211 67.668536 21.955944 15.700869 44.701671 30.074905 60.055036 52.946997 14.184488 21.134571 19.270685 46.028505 19.017955 71.175169-0.505461 50.419694-14.879496 98.406858-33.044486 145.004006-1.547973 3.980502-3.348676 7.771457-5.054606 11.657185-0.221139 0.473869-0.157956 1.010921 0.094774 1.48479 0.284322 0.410687 0.758191 0.7266 1.263651 0.7266l59.265254 0 1.23206-0.695008c14.816313-22.398222 25.020299-48.334669 34.750415-73.197011 18.733633-47.734434 33.929042-96.795703 27.800332-148.731778-3.095946-26.094403-12.352193-50.798789-25.652125-73.354968-17.406799-29.474671-49.566729-85.454431-75.408401-108.010609C486.12672 415.109507 486.632181 418.36341 478.576402 412.613796zM696.271959 153.186149 696.271959 153.186149 696.271959 153.186149ZM726.72596 189.54772c-5.496884-26.473498-30.991052-46.4076-66.689206-51.019928-53.389275-6.918492-105.514898 18.070216-148.605413 47.039426-18.765224 12.604923-36.740666 26.378724-54.7477 40.057752-20.028876 15.258591-40.815942 30.738322-59.296845 47.860799-24.514838 22.745726-47.766026 48.303077-65.204416 76.135001l142.792616 83.780092c0.221139-0.379095 0.284322-0.884556 0.568643-1.137286 29.474671-27.642376 82.326893-60.560497 107.505149-81.726659 42.774602-36.014067 95.784781-61.034366 129.303137-107.441966C725.99936 224.108588 730.043045 205.627685 726.72596 189.54772zM696.271959 153.186149 696.271959 153.186149 696.271959 153.186149 696.271959 153.186149z" fill="#272636"></path></g></g></svg>